PathFileType	4	(X/Y/Z)	Kaydara																																																																																																																									
DataRate	CameraRate	NumFrames	NumMarkers	Units	OrigDataRate	OrigDataStartFrame	OrigNumFrames																																																																																																																					
30	30	8	41	mm	30	122	195																																																																																																																					
Frame#	Time	NABA_LFHD			NABA_RFHD			NABA_LBHD			NABA_RBHD			NABA_LFTShould			NABA_RFTShould			NABA_LRRShould			NABA_RRRShould			NABA_T10			NABA_STRN			NABA_TRUN			NABA_LSHO			NABA_LUPA			NABA_LELB			NABA_LFRM			NABA_LWRA			NABA_LWRB			NABA_LFIN			NABA_RSHO			NABA_RUPA			NABA_RELB			NABA_RFRM			NABA_RWRA			NABA_RWRB			NABA_RFIN			NABA_LFWT			NABA_RFWT			NABA_LBWT			NABA_RBWT			NABA_LTHI			NABA_LKNE			NABA_LSHN			NABA_LANK			NABA_LHEE			NABA_LTOE			NABA_RTHI			NABA_RKNE			NABA_RSHN			NABA_RANK			NABA_RHEE			NABA_RTOE		
		X1	Y1	Z1	X2	Y2	Z2	X3	Y3	Z3	X4	Y4	Z4	X5	Y5	Z5	X6	Y6	Z6	X7	Y7	Z7	X8	Y8	Z8	X9	Y9	Z9	X10	Y10	Z10	X11	Y11	Z11	X12	Y12	Z12	X13	Y13	Z13	X14	Y14	Z14	X15	Y15	Z15	X16	Y16	Z16	X17	Y17	Z17	X18	Y18	Z18	X19	Y19	Z19	X20	Y20	Z20	X21	Y21	Z21	X22	Y22	Z22	X23	Y23	Z23	X24	Y24	Z24	X25	Y25	Z25	X26	Y26	Z26	X27	Y27	Z27	X28	Y28	Z28	X29	Y29	Z29	X30	Y30	Z30	X31	Y31	Z31	X32	Y32	Z32	X33	Y33	Z33	X34	Y34	Z34	X35	Y35	Z35	X36	Y36	Z36	X37	Y37	Z37	X38	Y38	Z38	X39	Y39	Z39	X40	Y40	Z40	X41	Y41	Z41
																																																																																																																												
122	4.043	128.53045	1528.95218	107.86942	-37.76708	1484.52347	101.69693	153.50604	1558.47015	-12.8191	-64.27876	1509.43375	5.96044	136.01027	1309.57809	3.575	3.64637	1290.3009	-19.83025	163.2156	1356.67923	-108.6759	18.98262	1343.05084	-129.78592	121.51409	1183.909	-179.56877	65.60852	1259.88861	46.97132	62.26041	1168.82927	107.65669	240.34397	1332.26089	-24.83318	293.58196	1123.61427	81.43548	294.22905	1068.60252	159.96112	284.52354	996.86447	187.06951	228.65705	929.4278	337.85034	302.93314	928.65974	337.72179	275.31996	906.57623	407.81311	-68.4952	1311.67313	-80.65999	-120.15242	1095.35217	-52.37243	-145.6759	1017.55997	55.78798	-151.80831	947.0047	123.72183	-85.02865	898.79448	263.22544	-161.45105	891.6967	269.92842	-143.95538	888.89854	319.62397	219.40184	908.51425	43.09458	-47.33176	918.64891	27.9222	180.67307	973.25401	-127.17264	11.03574	992.25983	-143.77698	233.92542	616.11828	-102.54877	239.10669	464.98547	-47.97822	197.62505	305.34485	-162.82974	234.21425	268.39121	-323.89824	179.97974	285.28273	-395.59074	198.46474	111.81979	-338.75446	-43.72172	625.411	-56.22427	-19.88175	493.88256	93.03504	-0.5552	316.86764	101.71583	-0.37477	118.93283	61.48003	43.36479	70.98739	-3.67556	32.39545	58.57317	180.97481
123	4.077	135.68507	1508.56705	158.63334	-30.67902	1464.78119	148.75964	156.73408	1560.74661	45.31868	-59.41681	1507.26746	60.33494	139.99736	1316.23367	27.11903	4.30858	1303.38272	10.35204	160.79184	1362.70309	-87.35549	15.22483	1355.72952	-98.93744	109.82724	1193.293	-152.23612	70.02392	1271.51093	74.01247	68.14891	1180.02754	133.76016	241.0928	1344.99344	-7.62204	288.80465	1154.12872	125.09363	286.49734	1109.08752	211.98153	275.33543	1043.05878	252.85126	202.71692	1012.30347	410.41595	275.55672	1007.63519	415.32875	247.97926	1004.4519	485.56087	-69.16164	1332.35718	-45.22943	-134.14037	1128.21617	6.41905	-152.88225	1064.58015	130.00339	-150.41824	1006.70898	210.96256	-61.40135	978.63686	343.18405	-134.61167	980.5658	365.19264	-107.34922	986.18698	409.35715	216.63025	925.61096	76.81365	-50.03384	926.44218	63.57879	169.98215	982.58644	-98.28678	4.91186	997.28836	-110.4483	235.23314	622.20997	-37.90275	236.02139	477.37038	32.44716	196.88803	312.10438	-71.69713	233.36718	266.95539	-230.77797	177.50498	277.42172	-303.76308	205.0618	114.28651	-229.35814	-43.09244	632.71919	-34.90981	-19.85611	492.43877	104.94007	0.20836	316.24826	107.82172	0.3262	119.15333	63.03847	44.58917	72.11332	-2.64748	32.6741	58.48828	181.55293
124	4.11	145.49662	1486.04095	203.30963	-21.33628	1443.76526	195.99161	160.64631	1555.26077	98.21929	-54.58875	1499.45282	116.89563	142.88017	1320.54413	54.2589	3.85247	1310.65018	42.93295	152.14994	1370.9552	-59.42717	9.39869	1364.69513	-64.92088	99.99366	1202.72934	-124.81088	73.33679	1276.04469	100.99838	71.94631	1184.77356	160.20229	235.82088	1358.03223	13.2719	288.59079	1184.28894	159.40996	285.62342	1146.67198	250.36963	273.55734	1085.45609	305.29583	180.80122	1090.08011	457.31541	250.96888	1086.95717	471.10153	219.60295	1099.50905	535.75787	-68.72266	1348.45673	-10.62464	-143.56665	1157.90588	61.78301	-158.75549	1110.64308	195.92045	-146.41863	1065.53383	286.64984	-38.44594	1056.75064	407.98561	-107.564	1065.36621	439.30344	-74.1562	1077.9921	477.22431	211.93272	937.92984	112.92799	-54.43988	932.54898	95.08664	161.82552	988.72513	-66.3715	3.61644	999.69131	-79.6482	235.06872	628.63525	24.95047	232.08252	490.29823	106.10427	195.74518	315.53751	17.95008	233.44051	254.9873	-135.96601	177.22467	254.66225	-210.01789	208.00959	107.70273	-110.69723	-41.74107	638.82324	-13.47328	-20.62332	491.39183	117.89743	-0.16936	315.58798	114.15296	1.18043	119.73835	64.47927	46.86115	73.46033	-1.17436	32.24889	58.59915	182.27894
125	4.143	155.52808	1466.58691	243.45064	-11.24192	1423.41202	242.48537	163.4366	1546.64825	145.46843	-49.71108	1486.82037	172.03365	142.13626	1322.78137	85.43286	2.64683	1311.54907	78.18859	143.83016	1376.62842	-25.73818	3.32167	1370.48065	-26.3021	91.96851	1210.97931	-96.76232	74.81303	1275.56206	130.58343	73.85369	1183.33649	187.37804	229.54662	1368.23822	43.32395	290.32446	1205.5542	187.79324	289.66675	1171.53809	282.14632	270.52681	1119.82887	350.4715	164.64693	1159.73335	486.45912	230.04454	1156.04073	508.68904	192.84101	1182.16202	565.64987	-69.37522	1360.37247	28.0894	-148.89084	1182.07893	114.60071	-161.72245	1150.67184	255.37891	-140.60516	1118.48427	352.50011	-16.97271	1127.38831	460.01892	-82.79737	1140.0605	498.06904	-46.14119	1159.57481	527.5285	205.55332	944.54437	149.8153	-60.31045	936.05621	123.68855	164.62482	989.99138	-32.37734	5.53227	999.10408	-50.58684	232.23719	633.31589	83.57531	226.60635	500.90599	172.44324	193.18031	315.83635	105.52366	232.99156	233.76762	-37.78277	177.81549	221.76752	-111.77573	209.78727	96.93073	11.86745	-38.81036	643.28133	7.56385	-21.39153	489.58843	131.73596	0.1566	314.22403	121.02305	2.55054	120.07794	65.88594	49.88326	74.58409	-0.07862	32.41334	58.43162	182.86058
126	4.177	164.16346	1450.60104	281.45264	-1.63585	1404.18457	286.44064	165.37956	1537.37915	189.09296	-44.89474	1471.54175	222.78835	140.80614	1322.59445	116.91483	3.79629	1309.83429	115.36379	139.89123	1378.2457	11.26739	1.17256	1373.48236	15.22795	85.70065	1216.55289	-66.31677	75.44878	1269.28741	160.55248	73.86177	1178.30803	216.05791	224.93601	1373.74069	75.5822	294.88491	1217.3999	217.23679	294.37466	1188.377	317.60664	266.51337	1147.60941	392.41821	146.76118	1218.97041	509.2223	212.73754	1210.77934	537.78526	171.65014	1247.64511	586.25973	-66.47998	1369.3248	72.0698	-152.54985	1203.36922	165.98764	-163.05262	1183.14323	310.2207	-133.27358	1161.315	410.22858	2.70723	1186.81824	501.81843	-59.92808	1202.10052	544.69971	-24.26648	1227.4453	566.36528	201.51798	948.06297	181.25792	-63.82389	935.66673	153.70488	171.48464	984.02283	-0.19722	4.78609	996.39259	-20.74898	227.71551	635.70053	135.37666	220.91906	508.89702	231.48085	188.70697	314.52791	190.78478	232.71477	210.13529	65.25556	179.86904	185.86866	-8.21743	208.96343	87.19676	136.83747	-34.25428	645.7869	29.46641	-22.43832	486.66584	147.19312	0.11526	311.74377	129.78945	3.48618	119.81668	66.80948	52.65888	75.2003	0.84862	32.39261	58.50107	182.50664
127	4.21	171.62067	1435.94116	318.13086	6.90616	1386.50879	327.03224	168.09763	1526.81458	229.81728	-39.81117	1456.17966	268.3703	137.70673	1321.85074	151.51329	4.68719	1307.28149	151.87551	138.23428	1379.35638	48.91497	2.26764	1374.81461	57.11522	80.99594	1220.83839	-35.1041	76.27579	1261.11977	190.34323	73.56294	1172.62962	246.44814	220.51098	1378.8945	111.5656	294.25882	1230.22324	254.65364	297.91504	1207.09518	356.24687	264.97696	1174.28207	434.78691	140.11989	1260.07767	529.50703	198.80016	1255.04089	565.90851	157.52635	1297.96738	606.19404	-60.64075	1376.72531	118.19107	-153.08125	1220.59738	215.77768	-163.47708	1207.94067	361.02009	-124.89937	1195.61424	461.04637	17.7933	1235.07042	534.46636	-39.00309	1251.32851	582.14703	-6.36625	1280.43777	596.75488	202.57235	947.39929	209.30506	-63.92656	933.18611	186.4447	175.48201	979.66042	32.41889	1.8082	992.0314	10.24267	223.76818	634.64027	179.69345	215.70194	513.708	282.97527	186.0013	314.97593	272.18039	232.14729	190.18887	168.21163	180.91541	152.54985	99.29848	205.96615	83.13444	261.07944	-32.4297	645.16708	54.8396	-23.99575	482.82509	168.18834	-0.46496	307.6918	142.661	3.85867	119.29432	70.17127	54.29228	76.68593	2.47492	32.51197	58.26833	182.04241
128	4.243	177.60736	1421.56281	353.79086	13.29062	1371.20819	365.00202	171.81061	1515.62469	268.99906	-34.80944	1442.54791	309.55387	134.40157	1319.46579	185.82132	7.08692	1305.8165	193.58047	136.16569	1380.29449	86.41416	4.55149	1376.13251	98.95118	77.91964	1224.40491	-2.44478	77.86045	1252.75192	220.5665	76.16669	1168.79845	279.33214	215.3685	1382.76627	148.28045	294.177	1246.18767	293.97142	300.83326	1229.66461	396.88522	266.8129	1202.67883	477.6992	132.52761	1290.91919	557.16244	188.83644	1292.77481	595.77629	148.18423	1337.16888	628.37776	-52.0363	1381.39389	161.38968	-149.7337	1233.56628	260.56301	-163.65458	1226.50093	406.76525	-115.84287	1221.68137	505.64785	31.27037	1274.08768	561.52054	-19.83669	1290.41672	612.45796	9.10822	1322.19238	621.89808	204.79548	942.01805	237.12765	-63.12752	929.83093	221.07378	173.89645	973.01842	62.27767	-1.2352	987.06825	43.00266	221.11511	630.31086	218.01275	213.2972	514.97654	328.7933	182.50578	316.48453	347.92267	228.61307	175.11988	267.43299	177.73884	126.18789	206.27295	201.93806	87.03049	378.28697	-34.20835	642.49092	83.56233	-26.40851	477.62245	194.07011	-1.36865	302.16377	159.77391	3.74557	118.54141	75.16845	55.14357	78.79279	4.54585	32.82837	58.13727	181.82497
129	4.277	182.71908	1408.66455	389.29127	17.87462	1358.82996	401.87248	176.27232	1504.01047	306	-30.18168	1431.15479	348.22475	135.1389	1314.55582	222.13352	15.40929	1307.42508	233.87814	134.42924	1378.33694	124.44802	9.26685	1375.47974	139.54597	76.51639	1225.09186	31.62189	79.94407	1245.10254	255.01173	78.77241	1163.25317	316.00801	210.69118	1383.54324	184.06424	295.77444	1263.72124	334.39079	304.96965	1254.10797	437.10724	270.71711	1231.86752	521.19686	127.59883	1320.09766	587.13768	182.52117	1327.51511	627.3925	146.27025	1373.95676	653.74435	-42.20586	1382.35413	202.36034	-143.96788	1241.99867	302.04336	-162.66712	1245.81596	449.10934	-108.73638	1248.28346	547.74075	42.52634	1306.41968	588.84136	-4.11446	1320.88882	643.11356	20.54745	1353.39691	650.04539	206.1371	935.28595	266.12442	-62.26231	924.22318	256.73494	166.52031	964.17625	89.53568	-4.75975	980.47318	77.27987	220.10241	624.39125	253.17978	214.89717	512.74052	369.24301	179.70173	318.37019	416.7651	222.04523	164.6586	361.76456	169.3651	107.00291	309.79023	194.27101	96.58986	485.40092	-36.28719	636.43696	115.55902	-28.13367	469.40197	223.74319	-1.54362	294.51622	179.82155	4.04648	117.27506	81.35065	55.70304	81.88995	7.36729	33.21718	58.10663	181.90315
